<?xml version="1.0" standalone="no"?>
<!DOCTYPE svg PUBLIC "-//W3C//DTD SVG 20010904//EN"
 "http://www.w3.org/TR/2001/REC-SVG-20010904/DTD/svg10.dtd">
<svg version="1.0" xmlns="http://www.w3.org/2000/svg"
 width="590.000000pt" height="590.000000pt" viewBox="0 0 590.000000 590.000000"
 preserveAspectRatio="xMidYMid meet">
<metadata>
Created by potrace 1.11, written by Peter Selinger 2001-2013
</metadata>
<g transform="translate(0.000000,590.000000) scale(0.100000,-0.100000)"
fill="#000000" stroke="none">
<path d="M0 2950 l0 -2950 2950 0 2950 0 0 2950 0 2950 -2950 0 -2950 0 0
-2950z m3397 1476 c333 -66 543 -209 668 -455 64 -127 96 -350 76 -521 -16
-133 -36 -200 -92 -315 -128 -262 -352 -426 -676 -495 -81 -18 -146 -22 -380
-27 l-283 -6 0 -518 0 -519 -240 0 -240 0 0 1441 0 1441 543 -5 c445 -4 557
-7 624 -21z"/>
<path d="M2710 3524 l0 -527 228 6 c257 6 323 17 438 72 130 63 220 178 254
323 17 74 15 244 -5 316 -46 173 -169 280 -367 320 -57 12 -139 16 -313 16
l-235 0 0 -526z"/>
</g>
</svg>
